<svg xmlns="http://www.w3.org/2000/svg" version="1.1" xmlns:xlink="http://www.w3.org/1999/xlink" xmlns:svgjs="http://svgjs.dev/svgjs" width="2000" height="808" viewBox="0 0 2000 808"><g transform="matrix(1,0,0,1,-1.2121212121212466,-1.860521884118441)"><svg viewBox="0 0 396 160" data-background-color="#ffffff" preserveAspectRatio="xMidYMid meet" height="808" width="2000" xmlns="http://www.w3.org/2000/svg" xmlns:xlink="http://www.w3.org/1999/xlink"><g id="tight-bounds" transform="matrix(1,0,0,1,0.2400000000000091,0.36842017507295566)"><svg viewBox="0 0 395.52 159.2631596498541" height="159.2631596498541" width="395.52"><g><svg viewBox="0 0 395.52 159.2631596498541" height="159.2631596498541" width="395.52"><g><svg viewBox="0 0 395.52 159.2631596498541" height="159.2631596498541" width="395.52"><g id="textblocktransform"><svg viewBox="0 0 395.52 159.2631596498541" height="159.2631596498541" width="395.52" id="textblock"><g><svg viewBox="0 0 395.52 159.2631596498541" height="159.2631596498541" width="395.52"><g transform="matrix(1,0,0,1,0,0)"><svg width="395.52" viewBox="2.6 -35.85 119.94000000000001 48.3" height="159.2631596498541" data-palette-color="#288cc8"><g class="wordmark-text-0" data-fill-palette-color="primary" id="text-0"><path d="M24.6 0.3L24.6 0.3Q23.65-1.25 22.13-3.53 20.6-5.8 18.68-8.3 16.75-10.8 14.73-13.08 12.7-15.35 10.9-16.95L10.9-16.95 20.85-27.3Q22.8-29.3 22.83-30.38 22.85-31.45 21.2-31.55L21.2-31.55Q21-32.1 20.95-32.73 20.9-33.35 20.9-33.95L20.9-33.95Q21.75-33.9 23.2-33.85 24.65-33.8 26.15-33.8L26.15-33.8Q27.15-33.8 28.18-33.83 29.2-33.85 30.13-33.88 31.05-33.9 31.65-33.95L31.65-33.95Q31.65-33.4 31.6-32.7 31.55-32 31.35-31.55L31.35-31.55Q30.2-31.5 29.15-31.1 28.1-30.7 26.95-29.83 25.8-28.95 24.25-27.25L24.25-27.25 15.65-18.15 15.9-19.7Q18.15-17.6 20.73-14.4 23.3-11.2 26.2-7.35L26.2-7.35Q27.4-5.75 28.38-4.7 29.35-3.65 30.55-3.1 31.75-2.55 33.6-2.4L33.6-2.4Q33.6-1.9 33.52-1.25 33.45-0.6 33.3 0L33.3 0Q32.35 0 31.23 0 30.1 0 28.93 0.05 27.75 0.1 26.63 0.15 25.5 0.2 24.6 0.3ZM2.6 0.15L2.6 0.15Q2.6-0.6 2.68-1.23 2.75-1.85 2.9-2.25L2.9-2.25Q4.25-2.35 4.98-2.75 5.7-3.15 6-4.1 6.3-5.05 6.3-6.8L6.3-6.8 6.3-27Q6.3-28.8 6-29.73 5.7-30.65 4.98-31.05 4.25-31.45 2.9-31.55L2.9-31.55Q2.7-32 2.65-32.63 2.6-33.25 2.6-33.95L2.6-33.95Q3.55-33.9 4.63-33.88 5.7-33.85 6.88-33.83 8.05-33.8 9.1-33.8L9.1-33.8Q10.2-33.8 11.3-33.83 12.4-33.85 13.45-33.88 14.5-33.9 15.5-33.95L15.5-33.95Q15.5-33.25 15.45-32.63 15.4-32 15.25-31.55L15.25-31.55Q13.95-31.45 13.18-31.05 12.4-30.65 12.1-29.73 11.8-28.8 11.8-27L11.8-27 11.8-6.8Q11.8-5.05 12.1-4.1 12.4-3.15 13.18-2.75 13.95-2.35 15.25-2.25L15.25-2.25Q15.4-1.85 15.45-1.23 15.5-0.6 15.5 0.15L15.5 0.15Q14.1 0.05 12.45 0.03 10.8 0 9.2 0L9.2 0Q7.55 0 5.75 0.03 3.95 0.05 2.6 0.15ZM36.3 0.15L36.3 0.15Q36.3-0.45 36.35-1.1 36.4-1.75 36.55-2.25L36.55-2.25Q38.55-2.3 39.27-3.2 40-4.1 40-6.6L40-6.6 40-28.55Q40-29.7 39.75-30.45 39.5-31.2 38.7-31.6 37.9-32 36.25-32L36.25-32Q36.25-32.6 36.35-33.15 36.45-33.7 36.7-34.15L36.7-34.15Q37.75-34.15 39.25-34.4 40.75-34.65 42.07-35.05 43.4-35.45 44.05-35.85L44.05-35.85Q44.55-35.65 44.9-35.15 45.25-34.65 45.25-33.65L45.25-33.65 45.25-6.6Q45.25-4.1 45.92-3.2 46.6-2.3 48.25-2.25L48.25-2.25Q48.4-1.75 48.47-1.05 48.55-0.35 48.55 0.15L48.55 0.15Q47.7 0.1 46.7 0.08 45.7 0.05 44.6 0.03 43.5 0 42.45 0L42.45 0Q41.4 0 40.25 0.03 39.1 0.05 38.1 0.08 37.1 0.1 36.3 0.15ZM63.1 0.45L63.1 0.45Q59.35 0.45 56.92-1.15 54.5-2.75 53.27-5.45 52.05-8.15 52.05-11.4L52.05-11.4Q52.05-14.7 53.35-17.4 54.65-20.1 57.07-21.73 59.5-23.35 62.8-23.35L62.8-23.35Q66.15-23.35 68.2-21.95 70.25-20.55 71.27-18.2 72.3-15.85 72.45-12.9L72.45-12.9Q72.25-11.75 71.6-11L71.6-11Q70.6-11 68.87-11 67.15-11 65.02-10.98 62.9-10.95 60.67-10.88 58.45-10.8 56.5-10.7L56.5-10.7 56.5-13.45 66.8-13.45Q66.8-16.75 65.67-18.75 64.55-20.75 62.45-20.75L62.45-20.75Q61.25-20.75 60.15-20 59.05-19.25 58.35-17.48 57.65-15.7 57.65-12.55L57.65-12.55Q57.65-10.05 58.3-7.78 58.95-5.5 60.5-4.08 62.05-2.65 64.9-2.65L64.9-2.65Q66.55-2.65 68.17-3.35 69.8-4.05 71.05-5.35L71.05-5.35Q71.45-5.15 71.82-4.6 72.2-4.05 72.25-3.55L72.25-3.55Q70.5-1.4 68.22-0.48 65.95 0.45 63.1 0.45ZM90.09-6.2L93.54-14.9Q94.79-17.95 94.17-19.07 93.54-20.2 91.49-20.6L91.49-20.6Q91.29-21.15 91.19-21.78 91.09-22.4 91.09-23L91.09-23Q92.24-22.95 93.47-22.93 94.69-22.9 96.04-22.9L96.04-22.9Q97.44-22.9 98.69-22.93 99.94-22.95 101.04-23L101.04-23Q101.04-22.45 100.99-21.83 100.94-21.2 100.69-20.6L100.69-20.6Q99.79-20.4 99.19-19.93 98.59-19.45 98.04-18.45 97.49-17.45 96.74-15.65L96.74-15.65 89.39 1.85Q87.99 5.25 86.84 7.35 85.69 9.45 84.69 10.55 83.69 11.65 82.69 12.05 81.69 12.45 80.54 12.45L80.54 12.45Q78.99 12.45 78.02 12 77.04 11.55 76.49 11.05L76.49 11.05Q76.29 10.25 76.34 9.08 76.39 7.9 76.59 7.15L76.59 7.15Q77.44 7.3 78.37 7.43 79.29 7.55 80.24 7.55L80.24 7.55Q81.69 7.55 82.97 6.88 84.24 6.2 85.19 4.7L85.19 4.7Q85.79 3.75 87.17 0.78 88.54-2.2 90.09-6.2L90.09-6.2ZM90.29-4.45L87.49 1.35Q86.24-1.35 84.89-4.35 83.54-7.35 82.29-10.13 81.04-12.9 80.09-14.9L80.09-14.9Q79.04-17.2 78.29-18.35 77.54-19.5 76.89-19.98 76.24-20.45 75.44-20.6L75.44-20.6Q75.29-21.1 75.19-21.73 75.09-22.35 75.09-23L75.09-23Q76.54-22.95 78.09-22.93 79.64-22.9 81.04-22.9L81.04-22.9Q82.49-22.9 84.47-22.93 86.44-22.95 87.99-23L87.99-23Q87.99-22.3 87.92-21.68 87.84-21.05 87.64-20.6L87.64-20.6Q85.04-20.15 84.67-19.1 84.29-18.05 85.64-15.35L85.64-15.35Q86.34-13.9 87.19-11.95 88.04-10 88.87-8.03 89.69-6.05 90.29-4.45L90.29-4.45ZM112.54-11.35L112.54-7.75Q112.54-5.6 112.99-4.45 113.44-3.3 114.47-2.85 115.49-2.4 117.14-2.25L117.14-2.25Q117.29-1.8 117.37-1.2 117.44-0.6 117.44 0.15L117.44 0.15Q116.64 0.1 115.54 0.08 114.44 0.05 113.19 0.03 111.94 0 110.69 0L110.69 0Q108.79 0 106.74 0.03 104.69 0.05 103.54 0.15L103.54 0.15Q103.54-0.65 103.59-1.25 103.64-1.85 103.84-2.25L103.84-2.25Q105.19-2.35 105.92-2.75 106.64-3.15 106.94-4.1 107.24-5.05 107.24-6.8L107.24-6.8 107.24-11.35 112.54-11.35ZM111.64-15.3L112.54-14.65 112.54-10.6 107.24-10.6 107.24-16.15 112.54-21Q112.54-19.45 112.24-18.1 111.94-16.75 111.64-15.3L111.64-15.3ZM112.54-11.9L111.44-15Q111.94-16.35 112.27-17.32 112.59-18.3 112.94-18.9L112.94-18.9Q114.04-20.65 115.57-21.8 117.09-22.95 119.09-22.95L119.09-22.95Q120.99-22.95 122.54-21.75L122.54-21.75Q122.44-20.9 122.34-19.78 122.24-18.65 122.22-17.53 122.19-16.4 122.19-15.45L122.19-15.45Q121.64-15.25 120.74-15.1 119.84-14.95 118.94-14.95L118.94-14.95Q118.84-17.2 118.22-17.98 117.59-18.75 116.59-18.75L116.59-18.75Q115.79-18.75 114.82-17.8 113.84-16.85 113.19-15.3 112.54-13.75 112.54-11.9L112.54-11.9ZM112.54-21L107.24-10.6 107.24-15.8Q107.24-17.1 107.02-17.88 106.79-18.65 105.99-19.05 105.19-19.45 103.54-19.5L103.54-19.5Q103.54-20.1 103.64-20.65 103.74-21.2 103.99-21.65L103.99-21.65Q105.89-21.75 108.04-22.25 110.19-22.75 111.34-23.35L111.34-23.35Q111.84-23.15 112.19-22.65 112.54-22.15 112.54-21L112.54-21Z" fill="#288cc8" data-fill-palette-color="primary"></path></g></svg></g></svg></g></svg></g></svg></g></svg></g><defs></defs></svg><rect width="395.52" height="159.2631596498541" fill="none" stroke="none" visibility="hidden"></rect></g></svg></g></svg>